<?xml version="1.0" standalone="no"?>
<!DOCTYPE svg PUBLIC "-//W3C//DTD SVG 20010904//EN"
 "http://www.w3.org/TR/2001/REC-SVG-20010904/DTD/svg10.dtd">
<svg version="1.0" xmlns="http://www.w3.org/2000/svg"
 width="500.000000pt" height="500.000000pt" viewBox="0 0 500.000000 500.000000"
 preserveAspectRatio="xMidYMid meet">
<metadata>
Created by potrace 1.11, written by Peter Selinger 2001-2013
</metadata>
<g transform="translate(0.000000,500.000000) scale(0.100000,-0.100000)"
fill="#000000" stroke="none">
<path d="M0 2500 l0 -2500 2500 0 2500 0 0 2500 0 2500 -2500 0 -2500 0 0
-2500z m2810 1875 c0 -6 -34 -44 -75 -85 l-75 -74 0 -796 c0 -737 1 -798 18
-830 21 -43 42 -45 62 -4 8 18 27 47 43 65 15 18 27 38 27 45 0 6 7 14 15 18
8 3 15 13 15 23 0 10 5 25 11 33 7 11 8 6 4 -19 -5 -24 -4 -31 4 -26 7 3 3 -8
-9 -27 -11 -18 -20 -41 -20 -50 0 -10 -4 -18 -10 -18 -14 0 -50 -32 -50 -45 0
-5 -7 -22 -14 -37 -8 -16 -10 -28 -5 -28 6 0 16 15 24 33 8 17 14 28 15 23 0
-5 9 -1 20 9 17 15 20 16 20 3 0 -9 -7 -21 -15 -28 -8 -7 -13 -16 -10 -20 3
-4 -2 -11 -11 -14 -21 -8 -8 -26 19 -26 58 1 149 72 146 115 0 6 -3 4 -6 -2
-8 -21 -22 -15 -16 7 3 11 9 17 14 14 5 -3 6 3 2 12 -4 11 -2 15 4 11 11 -7 9
105 -2 123 -3 5 -1 11 4 15 14 8 15 745 1 745 -6 0 -6 9 -1 23 4 12 9 177 9
367 1 190 1 356 2 369 0 14 5 21 13 18 41 -15 59 -18 53 -9 -4 6 2 8 14 5 11
-3 18 -9 15 -13 -2 -4 15 -13 38 -20 242 -77 526 -256 728 -459 91 -92 249
-286 249 -306 0 -4 9 -20 21 -36 18 -25 23 -28 37 -17 13 11 14 11 3 -7 -11
-17 -6 -31 31 -100 50 -92 97 -212 132 -337 94 -329 100 -626 20 -963 -14 -60
-28 -120 -31 -132 -3 -13 0 -23 9 -26 7 -2 6 -3 -3 -2 -12 2 -26 -23 -54 -94
-62 -159 -163 -334 -268 -466 -69 -86 -279 -288 -352 -338 l-70 -48 55 48 c30
26 73 64 95 85 l40 36 -20 24 -20 23 23 -20 24 -20 25 29 24 28 -23 27 -23 26
27 -23 26 -24 42 54 c80 100 143 201 201 322 59 123 115 279 122 338 3 18 8
41 12 51 4 9 5 26 2 37 -3 11 -1 18 4 14 5 -3 9 1 9 9 0 7 -6 14 -12 15 -7 0
-37 1 -66 3 -29 1 -55 6 -58 11 -3 5 9 8 28 7 18 0 43 2 56 5 13 3 20 1 17 -5
-4 -5 3 -9 13 -9 11 0 23 8 27 18 4 9 10 90 12 179 l6 163 -24 1 c-24 2 -24 2
-1 6 26 5 26 2 7 125 -24 164 -94 402 -144 492 -10 17 -35 63 -56 103 -21 39
-46 74 -56 76 -11 3 -35 -12 -65 -39 -27 -24 -50 -41 -52 -39 -5 5 67 106 82
117 6 4 5 16 -4 33 l-14 27 -54 -59 -54 -58 47 57 c47 58 52 81 22 107 -10 8
-23 -2 -53 -40 -46 -59 -92 -93 -55 -40 12 17 26 33 31 36 6 4 10 11 10 17 0
6 -6 6 -15 -2 -28 -23 -4 22 24 46 l26 23 -23 21 c-12 11 -27 18 -32 15 -5 -3
-7 0 -5 8 7 17 -30 51 -48 44 -10 -4 -13 0 -10 11 2 10 -6 27 -20 40 l-24 22
-12 -39 c-11 -37 -51 -81 -74 -81 -5 0 -15 8 -22 17 -11 14 -15 10 -29 -35
-15 -43 -22 -52 -41 -52 -12 0 -26 -7 -29 -16 -5 -14 -4 -15 9 -4 8 7 15 10
15 7 0 -15 -41 -95 -62 -120 -48 -60 -68 -80 -68 -69 0 6 -3 19 -6 29 -5 15
-4 15 4 3 9 -12 13 -9 21 15 6 17 16 38 21 47 6 10 10 27 10 38 0 11 9 29 19
39 11 11 27 36 37 58 19 40 33 55 46 47 4 -3 8 -1 8 4 0 6 -7 13 -16 16 -10 4
-13 2 -8 -6 4 -7 3 -8 -4 -4 -15 9 -3 39 13 32 17 -6 34 7 38 29 1 11 8 29 15
40 11 20 11 20 12 0 0 -15 3 -16 12 -7 7 7 18 12 26 12 16 0 7 -38 -15 -60
-13 -13 -14 -12 -8 10 7 24 7 24 -9 5 -20 -26 -20 -32 5 -38 15 -4 23 1 32 21
6 15 14 29 18 32 3 3 11 15 17 27 10 17 9 22 -4 27 -9 4 -23 1 -30 -5 -11 -9
-14 -8 -14 5 0 9 5 16 11 16 8 0 8 5 -1 15 -7 8 -16 15 -21 15 -5 0 -18 9 -30
21 -17 17 -23 18 -37 7 -15 -12 -16 -11 -4 4 12 15 10 19 -15 31 -15 8 -34 12
-41 10 -7 -3 -10 1 -7 9 4 9 -20 28 -73 56 -44 23 -82 42 -86 42 -3 0 -5 -49
-5 -110 2 -108 11 -140 23 -79 3 17 10 28 15 25 5 -4 12 2 14 11 4 16 5 16 6
1 0 -9 -5 -23 -12 -30 -7 -7 -16 -21 -20 -30 -3 -10 -10 -18 -15 -18 -9 0 -10
-125 -1 -134 3 -3 12 10 19 29 15 38 18 40 40 24 13 -9 13 -10 -1 -6 -31 10
-80 -143 -63 -197 6 -18 8 -18 26 5 l19 24 -6 -25 c-6 -24 -5 -24 9 -6 24 30
18 43 -16 37 -12 -2 -10 17 2 24 6 3 10 0 11 -7 0 -10 2 -10 6 0 2 6 10 9 15
6 6 -4 8 -3 5 3 -3 5 0 20 7 34 7 13 15 33 18 44 3 11 9 29 14 39 5 13 4 17
-4 12 -6 -3 -14 -1 -18 5 -5 9 3 11 29 6 36 -6 56 11 40 35 -3 6 -1 8 5 4 6
-3 14 -1 18 5 4 8 3 9 -4 5 -7 -4 -12 -1 -12 7 0 9 9 13 25 11 20 -2 28 4 39
31 8 18 19 35 24 39 19 11 23 -13 8 -41 -8 -16 -16 -37 -18 -48 -3 -22 -28
-46 -40 -39 -4 3 -5 12 -1 22 3 11 -1 9 -11 -6 -10 -12 -15 -26 -12 -30 4 -8
-19 -50 -71 -129 -12 -17 -12 -17 -7 2 5 16 4 17 -5 5 -8 -11 -7 -18 3 -25 12
-9 11 -14 -1 -30 -13 -17 -15 -17 -10 -2 4 9 2 17 -3 17 -5 0 -14 -16 -21 -35
-9 -23 -16 -31 -24 -25 -6 5 -17 5 -25 0 -11 -7 -11 -10 -2 -10 10 0 10 -4 0
-22 -16 -29 -18 -348 -3 -348 6 0 5 -3 -1 -8 -8 -5 -11 -75 -12 -219 0 -117
-3 -226 -7 -244 -6 -25 -4 -30 6 -25 8 4 6 1 -3 -6 -9 -8 -19 -25 -22 -39 -2
-13 -12 -40 -22 -59 -10 -19 -18 -39 -19 -45 0 -18 -109 -113 -165 -143 -62
-34 -155 -64 -165 -54 -4 4 -2 -3 4 -15 10 -19 9 -22 -4 -17 -8 4 -15 10 -15
14 0 5 -13 8 -29 8 -22 -1 -28 -5 -23 -16 3 -10 1 -13 -6 -8 -7 4 -12 2 -12
-3 0 -6 -5 -11 -11 -11 -8 0 -8 4 0 14 13 16 9 20 -30 30 -19 4 -29 1 -33 -10
-3 -8 -10 -12 -16 -9 -6 4 -8 11 -4 16 3 6 0 10 -7 8 -28 -3 -39 1 -39 18 0 9
-3 14 -6 10 -3 -3 -27 2 -53 12 -40 17 -48 17 -60 4 -10 -11 -25 -13 -57 -8
-37 5 -43 4 -38 -9 4 -10 1 -16 -9 -16 -9 0 -22 -3 -31 -6 -9 -3 -16 -1 -16 4
0 6 9 14 21 17 11 4 18 9 16 12 -7 7 -77 -19 -77 -29 0 -4 7 -5 15 -2 9 4 15
0 15 -9 0 -9 -24 -27 -55 -43 -61 -29 -86 -28 -31 1 19 10 37 28 40 39 4 20 4
19 -11 -1 -8 -13 -23 -23 -32 -23 -9 0 -22 -5 -29 -12 -9 -9 -12 -9 -12 0 0 6
11 14 25 18 48 12 24 19 -54 16 -50 -3 -101 2 -141 12 -73 19 -162 64 -168 86
-4 12 -2 13 9 2 7 -6 17 -12 21 -12 17 0 7 17 -22 39 l-31 22 7 -28 7 -28 -38
35 c-51 48 -100 125 -124 198 -20 57 -21 85 -21 458 -1 272 -4 402 -12 411 -7
9 -7 13 1 13 8 0 11 77 11 280 -1 183 -5 280 -11 280 -12 0 -51 -20 -59 -29
-10 -13 -62 -31 -71 -25 -5 3 -8 1 -7 -4 2 -5 -43 -43 -99 -85 -57 -43 -103
-82 -103 -89 0 -6 -3 -8 -7 -5 -24 25 -356 -374 -337 -405 4 -6 3 -8 -3 -5
-17 11 -116 -196 -161 -334 -55 -169 -73 -275 -79 -471 -4 -129 -2 -196 12
-290 17 -119 67 -313 86 -332 5 -6 9 -16 9 -23 0 -8 14 -43 30 -78 17 -35 30
-67 30 -71 0 -3 25 -49 56 -101 37 -63 59 -91 64 -83 4 7 13 10 18 6 6 -4 20
1 31 11 20 17 20 17 -18 88 -34 62 -111 229 -111 240 0 3 45 5 100 5 73 0 100
3 101 13 0 9 2 9 6 0 3 -10 38 -13 123 -13 112 0 120 1 148 25 29 24 50 66 46
93 -1 6 -2 19 -3 28 0 9 -17 32 -37 50 l-35 34 -118 0 -118 0 -104 105 c-57
58 -112 105 -122 105 -11 0 -15 5 -11 11 3 6 -13 31 -37 55 l-43 44 159 0
c123 0 162 -3 174 -14 14 -13 24 -13 76 0 83 19 148 17 235 -7 103 -28 164
-64 235 -135 90 -91 154 -240 155 -361 l0 -33 258 0 c258 0 259 0 271 23 l11
22 -6 -22 c-5 -21 -2 -23 30 -23 22 0 36 5 36 13 0 9 3 8 9 -2 7 -11 32 -13
117 -9 128 5 186 26 250 89 30 29 44 37 49 28 5 -8 4 -10 -3 -5 -34 21 16 -66
50 -88 13 -8 40 -18 61 -21 l37 -7 0 59 c0 117 47 232 133 329 23 26 42 52 42
57 0 6 7 12 15 14 13 4 13 3 0 -6 -8 -6 -12 -11 -8 -11 6 0 75 44 85 54 2 1
-16 1 -40 0 -23 -1 -35 0 -27 3 8 3 18 11 22 17 5 8 8 7 8 -1 0 -17 43 -14
112 8 86 28 190 34 273 14 63 -14 71 -14 81 0 9 12 38 15 168 15 87 0 156 -4
156 -9 0 -5 -41 -46 -90 -92 -53 -48 -89 -88 -86 -96 3 -8 -2 -13 -15 -13 -11
0 -18 -4 -14 -9 3 -6 -4 -15 -16 -22 -30 -16 -89 -70 -85 -78 2 -3 -29 -5 -70
-3 -41 2 -74 -1 -74 -6 0 -5 -23 -8 -52 -6 -61 3 -82 -6 -103 -46 -28 -54 -10
-126 38 -152 12 -6 42 -13 67 -14 l45 -3 -45 26 c-25 14 -51 26 -58 26 -10 0
-10 3 1 14 12 13 22 10 73 -18 33 -18 61 -36 64 -40 5 -7 21 -7 221 -8 l101
-1 -7 -27 c-3 -16 -31 -79 -61 -141 l-55 -113 23 -19 c26 -22 18 -26 -13 -8
-18 11 -23 10 -37 -12 -10 -14 -37 -52 -62 -85 -39 -52 -50 -60 -83 -63 -20
-2 -37 -8 -37 -14 0 -7 -5 -7 -14 1 -20 16 -366 14 -367 -2 0 -8 -2 -8 -6 1
-2 7 -22 12 -44 12 -30 0 -38 -3 -33 -12 6 -10 5 -10 -7 -1 -18 14 -158 16
-176 2 -9 -8 -13 -8 -13 0 0 6 -14 11 -31 11 -19 0 -28 -4 -23 -11 5 -8 1 -8
-14 0 -33 18 -47 13 -27 -9 10 -11 22 -17 27 -14 4 3 7 0 6 -8 -2 -7 4 -12 12
-10 8 2 12 0 8 -4 -4 -4 7 -28 25 -53 49 -68 59 -102 19 -64 -10 10 -31 28
-46 41 -15 12 -24 27 -21 33 4 5 3 8 -2 7 -4 -2 -8 -1 -8 2 0 3 -10 19 -23 37
-12 17 -22 35 -22 40 0 4 -19 18 -43 31 -27 14 -47 33 -54 52 -10 28 -33 42
-33 21 0 -12 -99 -75 -124 -78 -60 -8 -68 -13 -63 -39 2 -13 1 -27 -3 -29 -10
-6 -7 -24 9 -54 7 -13 8 -21 3 -17 -18 11 -8 -62 11 -81 16 -16 17 -16 17 5 0
12 -4 22 -9 22 -5 0 -5 18 1 42 10 47 22 67 16 29 -1 -13 3 -26 10 -28 8 -3
10 1 5 13 -4 12 -2 15 8 12 14 -5 15 -9 24 -118 4 -45 12 -70 24 -82 11 -9 22
-14 25 -11 3 4 6 1 6 -5 0 -5 18 -29 40 -52 22 -23 40 -44 40 -47 0 -2 7 -11
16 -20 8 -9 13 -22 10 -29 -3 -8 -1 -14 4 -14 5 0 7 -7 4 -15 -8 -21 -21 -10
-29 25 -8 37 -13 37 -46 2 -19 -19 -26 -35 -24 -54 2 -16 -1 -28 -6 -28 -5 0
-9 10 -9 22 0 17 -24 -2 -111 -88 -60 -60 -112 -111 -115 -113 -6 -6 -315 302
-311 311 1 3 50 56 110 117 59 61 107 119 108 128 0 11 3 13 6 5 6 -15 53 25
53 46 0 11 22 17 45 12 6 -1 17 -3 26 -5 9 -2 16 3 16 11 0 10 -4 11 -13 3
-10 -8 -13 -6 -11 10 0 11 5 17 9 15 9 -6 15 8 21 51 l4 30 -258 0 -259 0 -19
-31 c-15 -24 -17 -34 -8 -43 9 -9 8 -11 -4 -6 -13 5 -23 -7 -44 -50 -14 -31
-29 -55 -32 -52 -2 3 1 15 7 27 7 13 8 26 3 31 -6 6 -23 -12 -43 -43 -91 -146
-126 -184 -79 -88 16 34 28 65 25 68 -3 2 -8 -3 -12 -12 -3 -9 -10 -14 -14
-11 -5 3 -6 -5 -3 -17 3 -15 2 -19 -4 -11 -6 9 -12 6 -22 -10 -13 -20 -13 -21
2 -8 23 18 21 5 -4 -35 -11 -19 -24 -32 -29 -29 -4 3 -18 -15 -30 -40 -12 -25
-26 -48 -32 -51 -6 -4 -6 2 1 14 14 26 14 45 0 37 -13 -8 23 62 46 90 9 11 4
-2 -11 -28 -32 -57 -27 -72 7 -22 13 19 28 35 33 35 4 0 6 6 3 13 -7 17 22 77
37 77 16 1 63 40 47 40 -7 0 0 12 17 28 33 31 64 95 56 116 -3 8 -26 14 -66
15 -51 1 -63 -2 -80 -21 -19 -21 -20 -22 -16 -3 3 18 -3 20 -54 23 -32 1 -58
0 -58 -2 0 -3 7 -12 16 -21 21 -21 12 -30 -16 -15 -12 6 -19 18 -16 25 3 10
-4 13 -27 11 -31 -2 -85 -25 -60 -26 6 0 15 5 18 10 8 13 35 -6 35 -24 0 -6
-4 -5 -9 3 -5 7 -14 10 -21 6 -8 -5 -9 -10 -1 -18 17 -17 41 -17 41 -1 0 12 4
12 20 4 26 -14 25 -19 -5 -54 -14 -16 -25 -33 -25 -38 0 -5 -5 -6 -10 -3 -6 3
-10 0 -10 -8 0 -8 -7 -18 -16 -21 -8 -3 -12 -11 -8 -17 4 -7 3 -9 -4 -5 -17
10 -25 -13 -11 -32 11 -14 11 -15 -1 -4 -20 18 -30 15 -30 -9 0 -19 -2 -20
-17 -8 -10 7 -15 10 -12 6 3 -4 -9 -23 -27 -43 -19 -19 -33 -38 -33 -42 3 -18
-2 -35 -8 -29 -3 4 -12 2 -20 -4 -22 -19 -16 17 7 39 19 18 19 19 3 34 -35 29
-43 30 -73 1 -17 -15 -30 -34 -30 -41 0 -7 -7 -15 -15 -18 -8 -4 -15 -17 -15
-29 0 -26 -15 -41 -25 -26 -6 11 9 42 43 84 26 34 28 49 6 40 -12 -4 -15 -2
-12 8 3 8 14 14 25 14 12 0 25 4 30 9 5 5 0 6 -11 2 -14 -5 -17 -2 -12 9 3 9
-3 19 -14 25 -25 13 -30 13 -30 -3 0 -15 -57 -73 -64 -66 -3 2 9 27 26 53 l30
50 -48 42 c-27 23 -53 40 -58 36 -5 -3 -6 -1 -3 4 3 5 -25 42 -62 82 -37 40
-65 72 -63 72 3 0 -1 7 -8 15 -7 9 -19 14 -26 11 -8 -3 -11 0 -7 10 3 8 -8 30
-23 50 -148 186 -308 574 -327 789 -3 28 -7 57 -10 65 -10 28 -17 135 -18 275
-1 776 514 1491 1259 1749 57 20 114 36 127 36 l23 0 -3 -302 c-3 -254 -2
-306 10 -322 17 -23 19 -17 6 17 -7 17 -6 24 4 24 7 0 12 -13 13 -31 0 -17 0
-34 1 -38 1 -5 0 -10 -1 -13 -2 -2 6 -11 17 -19 23 -18 13 -21 -16 -6 -10 6
-19 17 -19 25 0 7 -4 16 -9 20 -6 3 -6 -6 -1 -25 5 -19 5 -30 -1 -30 -6 0 -5
-8 1 -20 6 -11 7 -20 2 -20 -13 0 -14 -905 -1 -952 13 -52 62 -101 91 -93 16
4 19 3 10 -3 -11 -7 -10 -10 3 -16 28 -10 55 -7 55 7 0 8 12 19 26 25 14 7 22
17 19 22 -3 6 -1 10 4 10 6 0 11 -8 12 -17 0 -11 3 -13 6 -5 2 6 13 12 24 12
11 0 25 13 35 31 13 27 16 64 13 238 -1 113 -1 474 0 801 l2 595 -77 73 -77
74 159 159 159 159 152 -152 c84 -84 153 -157 153 -163z m317 -81 c-3 -3 -12
-4 -19 -1 -8 3 -5 6 6 6 11 1 17 -2 13 -5z m-186 -465 c-9 -22 -10 -22 -10 -3
-1 11 2 24 6 27 12 12 14 0 4 -24z m-36 -78 c-4 -17 -10 -33 -14 -36 -5 -2 -3
13 2 35 13 46 22 46 12 1z m-618 -53 c-3 -7 -5 -2 -5 12 0 14 2 19 5 13 2 -7
2 -19 0 -25z m-177 12 c0 -5 -5 -10 -11 -10 -5 0 -7 5 -4 10 3 6 8 10 11 10 2
0 4 -4 4 -10z m846 -17 c-3 -10 -8 -39 -10 -65 -7 -68 -16 -96 -32 -102 -11
-4 -12 -1 -5 12 6 10 13 43 17 73 7 57 20 99 29 99 4 0 4 -8 1 -17z m-79 -25
c-3 -7 -5 -2 -5 12 0 14 2 19 5 13 2 -7 2 -19 0 -25z m1123 7 c-7 -9 -15 -13
-19 -10 -3 3 1 10 9 15 21 14 24 12 10 -5z m-636 -85 c-10 -27 -21 -50 -26
-50 -8 0 -6 5 13 55 12 30 15 39 18 52 0 3 4 4 7 0 4 -3 -2 -29 -12 -57z m74
-36 c-16 -46 -41 -59 -34 -17 2 15 5 32 5 36 1 5 6 5 13 1 6 -4 8 -3 5 4 -4 5
-4 18 -1 27 6 15 8 15 16 2 5 -9 3 -31 -4 -53z m-1368 31 c0 -14 -4 -25 -9
-25 -6 0 -8 36 -2 48 5 10 11 -2 11 -23z m1403 10 c-3 -9 -8 -14 -10 -11 -3 3
-2 9 2 15 9 16 15 13 8 -4z m-1354 -37 c0 -31 -1 -31 -10 -10 -5 13 -7 28 -3
33 10 16 14 9 13 -23z m1271 13 c0 -6 -4 -12 -8 -15 -5 -3 -9 1 -9 9 0 8 4 15
9 15 4 0 8 -4 8 -9z m-1320 -69 c0 -15 -2 -15 -10 -2 -13 20 -13 33 0 25 6 -3
10 -14 10 -23z m843 1 c-7 -2 -13 -14 -14 -26 0 -12 -3 -16 -6 -9 -7 18 4 42
19 41 10 0 10 -2 1 -6z m-1498 -83 c3 -5 1 -10 -4 -10 -6 0 -11 5 -11 10 0 6
2 10 4 10 3 0 8 -4 11 -10z m2155 -3 c0 -2 -10 -12 -21 -23 -22 -19 -22 -19
-8 4 12 19 29 30 29 19z m15 -36 c-3 -6 -11 -11 -17 -11 -6 0 -6 6 2 15 14 17
26 13 15 -4z m-908 -38 c-3 -10 -5 -2 -5 17 0 19 2 27 5 18 2 -10 2 -26 0 -35z
m71 -50 c-1 -62 -2 -64 -7 -23 -3 25 -4 55 -2 68 7 42 11 22 9 -45z m1732 53
c0 -2 -7 -7 -16 -10 -8 -3 -12 -2 -9 4 6 10 25 14 25 6z m-922 -40 c-8 -6 -24
-29 -36 -52 -11 -22 -29 -47 -39 -54 -17 -14 -17 -14 -2 5 9 11 26 41 36 66
13 29 27 46 38 46 15 0 16 -2 3 -11z m774 -12 c-12 -8 -19 -20 -16 -26 4 -6
-2 -6 -15 1 -11 7 -21 14 -21 17 0 3 5 2 10 -1 6 -3 17 1 26 9 8 9 21 16 27
16 6 0 1 -7 -11 -16z m-962 -33 c0 -5 -3 -17 -6 -26 -5 -12 -9 -14 -14 -4 -5
7 -6 18 -3 26 6 15 23 18 23 4z m103 -23 c-4 -7 -8 -16 -8 -20 0 -14 -15 -21
-15 -7 0 8 5 20 12 27 16 16 21 15 11 0z m-138 -19 c-10 -15 -25 -10 -19 6 4
8 10 12 15 9 5 -3 7 -10 4 -15z m267 -1 c-7 -7 -12 -8 -12 -2 0 6 3 14 7 17 3
4 9 5 12 2 2 -3 -1 -11 -7 -17z m-715 -10 c-3 -8 -6 -5 -6 6 -1 11 2 17 5 13
3 -3 4 -12 1 -19z m-1713 3 c4 -5 -3 -7 -14 -4 -23 6 -26 13 -6 13 8 0 17 -4
20 -9z m2499 -6 c-3 -9 -8 -14 -10 -11 -3 3 -2 9 2 15 9 16 15 13 8 -4z m97
-54 c-5 -11 -15 -23 -21 -27 -6 -3 -3 5 6 20 20 30 30 35 15 7z m-957 -16 c-7
-21 -13 -19 -13 6 0 11 4 18 10 14 5 -3 7 -12 3 -20z m604 -39 c-1 -24 -5 -42
-9 -40 -4 3 -4 12 -1 22 6 15 5 16 -12 2 -10 -8 -16 -10 -12 -4 3 6 11 23 16
38 15 37 19 33 18 -18z m-592 -4 c-5 -4 -11 -25 -12 -47 -3 -46 -23 -115 -34
-115 -4 0 -10 -7 -13 -16 -5 -14 -4 -15 8 -5 13 11 14 7 9 -26 -3 -21 -11 -44
-19 -52 -10 -11 -11 -8 -4 22 5 23 4 37 -2 39 -18 6 2 87 23 98 10 6 19 18 19
27 0 14 -2 14 -15 -3 -8 -10 -15 -15 -15 -10 0 5 7 17 15 26 8 9 17 27 19 41
2 13 5 25 5 27 1 1 7 2 14 2 7 0 8 -3 2 -8z m643 -32 c-11 -33 -28 -49 -28
-28 0 13 27 58 35 58 2 0 -1 -14 -7 -30z m90 -15 c-2 -17 -8 -25 -21 -25 -17
0 -17 1 0 25 22 31 23 31 21 0z m-1275 -15 c3 -11 1 -23 -4 -26 -5 -3 -9 6 -9
20 0 31 6 34 13 6z m-76 -22 c-3 -8 -6 -5 -6 6 -1 11 2 17 5 13 3 -3 4 -12 1
-19z m1553 7 c-7 -8 -19 -15 -27 -15 -13 0 -13 3 -3 15 7 8 19 15 27 15 13 0
13 -3 3 -15z m-400 -15 c0 -5 -2 -10 -4 -10 -3 0 -8 5 -11 10 -3 6 -1 10 4 10
6 0 11 -4 11 -10z m63 1 c4 0 7 -5 7 -10 0 -6 -9 -8 -20 -6 -11 2 -19 1 -17
-3 3 -12 -25 -72 -34 -72 -4 0 -2 18 6 41 8 23 13 45 10 49 -4 6 16 7 48 1z
m-1243 -26 c0 -8 -2 -15 -4 -15 -2 0 -6 7 -10 15 -3 8 -1 15 4 15 6 0 10 -7
10 -15z m70 -40 c0 -9 -6 -12 -16 -8 -13 5 -13 7 -2 14 17 11 18 11 18 -6z
m1440 0 c-7 -9 -15 -13 -17 -11 -7 7 7 26 19 26 6 0 6 -6 -2 -15z m-1435 -35
c3 -5 1 -10 -4 -10 -6 0 -11 5 -11 10 0 6 2 10 4 10 3 0 8 -4 11 -10z m1072 4
c-3 -3 -12 -4 -19 -1 -8 3 -5 6 6 6 11 1 17 -2 13 -5z m-1937 -28 c8 -4 -1 -4
-20 -1 -19 3 -39 10 -44 15 -10 10 19 3 64 -14z m1486 -32 c-4 -14 -9 -24 -12
-21 -3 2 -2 17 2 31 3 15 9 25 11 22 3 -3 2 -17 -1 -32z m425 -7 c-10 -9 -11
-8 -5 6 3 10 9 15 12 12 3 -3 0 -11 -7 -18z m-1156 3 c3 -5 1 -10 -4 -10 -6 0
-11 5 -11 10 0 6 2 10 4 10 3 0 8 -4 11 -10z m128 -15 c3 -21 -1 -29 -26 -42
-22 -11 -32 -12 -35 -4 -2 6 -7 9 -11 6 -5 -2 -17 3 -27 11 -10 9 -14 13 -8
10 7 -3 14 0 17 8 7 16 42 15 42 -2 0 -6 4 -14 8 -19 5 -4 7 -1 5 7 -1 8 2 14
8 13 7 -1 10 6 7 17 -3 11 -1 20 5 20 5 0 12 -11 15 -25z m458 -38 c-8 -8 -11
-7 -11 4 0 20 13 34 18 19 3 -7 -1 -17 -7 -23z m183 11 c-8 -27 -12 -33 -19
-27 -7 8 7 49 17 49 5 0 6 -10 2 -22z m-694 -48 c-8 -5 -19 -10 -25 -10 -5 0
-3 5 5 10 8 5 20 10 25 10 6 0 3 -5 -5 -10z m-1273 -6 c-3 -3 -12 -4 -19 -1
-8 3 -5 6 6 6 11 1 17 -2 13 -5z m1375 -36 c-3 -18 -7 -27 -9 -20 -3 6 -9 10
-14 6 -5 -3 -9 0 -9 5 0 6 5 11 10 11 6 0 10 7 10 15 0 8 4 15 8 15 5 0 6 -15
4 -32z m-85 -32 c2 -26 -2 -35 -17 -39 -18 -5 -18 -3 -4 18 14 22 14 24 -8 31
-22 7 -22 7 -3 15 30 11 30 12 32 -25z m37 9 c-4 -8 -11 -15 -16 -15 -6 0 -5
6 2 15 7 8 14 15 16 15 2 0 1 -7 -2 -15z m651 -19 c-9 -12 -18 -29 -22 -38 -3
-10 -9 -18 -14 -18 -5 0 -3 11 3 25 6 14 15 25 20 25 4 0 8 5 8 11 0 5 -5 7
-12 3 -6 -4 -8 -3 -5 3 3 5 13 10 22 10 14 0 14 -2 0 -21z m-40 -13 c-4 -10
-12 -37 -17 -60 -5 -23 -17 -48 -26 -55 -14 -11 -15 -11 -9 5 4 11 10 31 13
45 10 45 26 82 36 82 6 0 7 -8 3 -17z m-730 -2 c3 -5 1 -12 -5 -16 -5 -3 -10
1 -10 9 0 18 6 21 15 7z m655 -52 c-7 -11 -14 -18 -17 -15 -3 3 0 12 7 21 18
21 23 19 10 -6z m-595 2 c-9 -8 -36 -10 -30 -2 2 4 11 8 20 8 8 0 13 -3 10 -6z
m1082 -287 c-3 -3 -12 -4 -19 -1 -8 3 -5 6 6 6 11 1 17 -2 13 -5z m-57 -144
c-24 -15 -37 -11 -16 5 11 8 22 12 25 9 3 -3 -1 -9 -9 -14z m-670 -101 c0 -5
-5 -7 -11 -3 -7 4 -10 1 -7 -7 3 -8 -8 -21 -26 -31 -22 -12 -26 -17 -13 -18
22 0 17 -24 -5 -28 -16 -3 -31 32 -19 43 3 4 6 12 6 18 0 5 6 12 14 15 8 3 11
0 7 -7 -4 -6 -2 -11 3 -11 6 0 11 6 11 14 0 13 13 23 33 25 4 1 7 -4 7 -10z
m29 -34 c5 2 19 -7 32 -22 16 -18 20 -27 12 -30 -7 -3 -13 -9 -13 -15 0 -7 5
-6 14 1 11 9 16 9 21 0 6 -8 10 -7 17 2 8 11 9 11 5 -1 -2 -8 -12 -15 -23 -16
-39 -2 -44 -4 -44 -19 0 -12 -3 -12 -20 3 l-21 17 23 7 c13 3 19 6 14 7 -5 1
-3 8 4 16 7 8 9 15 5 15 -4 0 -14 -8 -21 -17 -11 -14 -15 -15 -22 -5 -7 10
-11 10 -22 -2 -7 -9 -16 -13 -21 -10 -5 3 -9 0 -9 -6 0 -6 -5 -8 -10 -5 -15 9
-1 26 18 23 12 -2 16 3 14 20 -2 13 3 25 12 28 9 3 17 16 17 28 2 20 2 20 6
-2 2 -12 8 -20 12 -17z m31 15 c8 -5 11 -10 5 -10 -5 0 -17 5 -25 10 -8 5 -10
10 -5 10 6 0 17 -5 25 -10z m1394 -8 c3 -5 -1 -9 -9 -9 -8 0 -12 4 -9 9 3 4 7
8 9 8 2 0 6 -4 9 -8z m-1357 -18 c-3 -3 -12 -4 -19 -1 -8 3 -5 6 6 6 11 1 17
-2 13 -5z m1398 -24 c3 -5 -3 -10 -14 -10 -11 0 -23 5 -26 10 -3 6 3 10 14 10
11 0 23 -4 26 -10z m-1310 -10 c3 -5 1 -10 -4 -10 -6 0 -11 5 -11 10 0 6 2 10
4 10 3 0 8 -4 11 -10z m195 0 c0 -5 -5 -10 -11 -10 -5 0 -7 5 -4 10 3 6 8 10
11 10 2 0 4 -4 4 -10z m-110 -38 c-21 -7 -23 -6 -26 10 -2 14 1 15 17 5 11 -7
15 -13 9 -15z m-269 -19 c10 -11 10 -14 2 -9 -7 4 -13 4 -14 -1 -4 -47 -22
-73 -19 -28 3 45 1 49 -15 35 -9 -8 -15 -8 -15 -2 0 10 16 20 36 21 6 1 18 -7
25 -16z m1349 1 c0 -2 -9 -4 -21 -4 -11 0 -18 4 -14 10 5 8 35 3 35 -6z
m-1243 -12 c9 -15 8 -21 -6 -29 -27 -17 -46 -1 -32 26 14 26 23 26 38 3z
m1436 11 c-7 -2 -21 -2 -30 0 -10 3 -4 5 12 5 17 0 24 -2 18 -5z m-523 -19 c0
-2 -9 -4 -20 -4 -11 0 -20 4 -20 9 0 5 9 7 20 4 11 -3 20 -7 20 -9z m-1167 -9
c-3 -9 -8 -14 -10 -11 -3 3 -2 9 2 15 9 16 15 13 8 -4z m1697 5 c8 -5 12 -11
10 -14 -3 -2 -14 2 -24 10 -22 15 -10 19 14 4z m-1215 -21 c11 -17 -1 -21 -15
-4 -8 9 -8 15 -2 15 6 0 14 -5 17 -11z m-190 -27 c-3 -3 -11 0 -18 7 -9 10 -8
11 6 5 10 -3 15 -9 12 -12z m-294 -25 c-10 -9 -11 -8 -5 6 3 10 9 15 12 12 3
-3 0 -11 -7 -18z m129 2 c0 -6 -4 -7 -10 -4 -5 3 -10 11 -10 16 0 6 5 7 10 4
6 -3 10 -11 10 -16z m-11 -46 c1 -7 -4 -13 -10 -13 -5 0 -7 5 -4 10 3 6 2 10
-4 10 -13 0 -41 29 -41 41 0 15 59 -34 59 -48z m-69 40 c-1 -18 -18 -35 -24
-24 -4 6 -4 16 -1 21 7 12 25 13 25 3z m1060 -19 c0 -2 -7 -4 -15 -4 -8 0 -15
4 -15 10 0 5 7 7 15 4 8 -4 15 -8 15 -10z m-2310 -2 c0 -10 -65 -42 -83 -41
-9 0 48 34 81 48 1 1 2 -3 2 -7z m1201 -26 c-6 -7 -9 -20 -5 -29 3 -8 1 -18
-5 -22 -7 -4 -11 8 -11 34 0 22 5 41 13 44 16 6 21 -11 8 -27z m55 -13 c-11
-11 -17 4 -9 23 7 18 8 18 11 1 2 -10 1 -21 -2 -24z m30 -18 c1 -8 -2 -15 -7
-15 -5 0 -9 10 -9 22 0 23 12 17 16 -7z m1384 -20 c0 -11 -19 -4 -41 15 l-24
21 33 -16 c17 -8 32 -18 32 -20z m80 14 c0 -6 -4 -7 -10 -4 -5 3 -10 11 -10
16 0 6 5 7 10 4 6 -3 10 -11 10 -16z m-1619 -12 c-10 -9 -11 -8 -5 6 3 10 9
15 12 12 3 -3 0 -11 -7 -18z m1249 -3 c0 -2 -9 0 -20 6 -11 6 -20 13 -20 16 0
2 9 0 20 -6 11 -6 20 -13 20 -16z m405 16 c3 -5 1 -10 -4 -10 -6 0 -11 5 -11
10 0 6 2 10 4 10 3 0 8 -4 11 -10z m-35 -264 c0 -3 -4 -8 -10 -11 -5 -3 -10
-1 -10 4 0 6 5 11 10 11 6 0 10 -2 10 -4z m-3045 -126 c-3 -5 -12 -10 -18 -10
-7 0 -6 4 3 10 19 12 23 12 15 0z m-85 -10 c0 -5 -8 -10 -17 -10 -15 0 -16 2
-3 10 19 12 20 12 20 0z m2046 -121 c8 -7 13 -18 10 -26 -3 -8 -2 -12 2 -10 4
3 13 -1 20 -9 7 -8 10 -14 7 -14 -4 0 8 -18 25 -40 18 -23 30 -43 27 -47 -3
-3 -15 10 -26 28 -15 25 -21 29 -21 15 0 -16 -2 -17 -17 -5 -10 8 -1 -6 20
-30 20 -25 35 -47 32 -49 -2 -3 1 -14 7 -26 8 -15 3 -13 -20 9 -35 33 -42 45
-14 25 9 -7 -7 9 -36 36 -55 52 -66 72 -29 54 20 -10 20 -9 -3 9 -16 13 -27
16 -31 9 -4 -6 -10 -2 -14 11 -3 11 -11 21 -16 21 -5 0 -1 9 8 20 16 19 18 19
37 2 21 -17 21 -17 2 5 -14 17 -22 20 -32 12 -14 -12 -38 -3 -29 11 7 12 73 4
91 -11z m-1951 1 c-3 -5 -11 -10 -16 -10 -6 0 -7 5 -4 10 3 6 11 10 16 10 6 0
7 -4 4 -10z m792 -5 c0 -8 -4 -12 -9 -9 -5 3 -6 10 -3 15 9 13 12 11 12 -6z
m55 -26 c7 -4 6 -9 -1 -13 -6 -4 -11 -2 -11 5 0 7 -10 2 -22 -11 -13 -14 -22
-28 -21 -32 2 -4 -6 -10 -17 -13 -11 -4 -18 -11 -15 -16 4 -5 -1 -9 -9 -9 -17
0 -21 -15 -7 -24 5 -4 12 0 14 6 3 8 6 6 6 -5 1 -10 -12 -32 -29 -50 -16 -18
-30 -35 -30 -39 0 -14 -18 -8 -24 8 -3 8 -2 13 3 9 15 -9 52 50 40 62 -13 13
29 83 49 83 9 0 11 7 7 21 -5 14 -3 19 3 15 6 -3 13 3 17 14 4 11 11 18 16 15
5 -4 10 0 10 7 1 7 4 4 6 -7 3 -11 10 -23 15 -26z m50 19 c-7 -7 -12 -8 -12
-2 0 14 12 26 19 19 2 -3 -1 -11 -7 -17z m80 -3 c3 -13 1 -23 -5 -22 -5 1 -12
-4 -14 -11 -3 -8 1 -10 13 -5 16 6 17 5 4 -9 -21 -23 -39 -4 -22 22 7 11 8 20
3 20 -6 0 -14 -6 -18 -12 -4 -7 -17 -20 -28 -28 -19 -14 -20 -14 -2 6 9 11 14
24 10 27 -3 4 1 7 9 7 9 0 18 7 22 15 8 23 23 18 28 -10z m1135 3 c-3 -8 -6
-5 -6 6 -1 11 2 17 5 13 3 -3 4 -12 1 -19z m-947 -7 c0 -6 -4 -12 -10 -16 -5
-3 -7 -12 -4 -20 3 -7 -4 -23 -15 -34 -12 -12 -18 -21 -14 -21 3 0 -1 -8 -9
-17 -8 -10 -18 -27 -22 -37 -3 -10 -9 -17 -11 -14 -7 7 68 167 78 168 4 0 7
-4 7 -9z m570 -20 c5 -10 5 -23 -1 -32 -8 -12 -10 -12 -18 1 -5 8 -7 18 -5 22
3 5 -2 11 -10 14 -23 9 -19 23 4 17 11 -3 25 -13 30 -22z m650 19 c0 -5 -2
-10 -4 -10 -3 0 -8 5 -11 10 -3 6 -1 10 4 10 6 0 11 -4 11 -10z m-2410 -5 c0
-2 -13 -11 -30 -20 -38 -19 -40 -11 -2 9 31 17 32 18 32 11z m892 -27 c-8 -8
-9 -4 -5 13 4 13 8 18 11 10 2 -7 -1 -18 -6 -23z m1912 -7 c-2 -3 -12 3 -22
13 -16 17 -16 18 5 5 12 -7 20 -15 17 -18z m-271 2 c-3 -7 1 -21 8 -31 13 -16
12 -16 -10 -1 -29 18 -36 45 -11 45 10 0 16 -6 13 -13z m-1687 -31 c-17 -16
-18 -16 -5 5 7 12 15 20 18 17 3 -2 -3 -12 -13 -22z m98 3 c-4 -8 -11 -15 -16
-15 -6 0 -5 6 2 15 7 8 14 15 16 15 2 0 1 -7 -2 -15z m877 -27 c9 -17 8 -18
-10 -6 -11 6 -22 20 -25 31 -4 15 -2 16 10 6 8 -7 20 -21 25 -31z m-845 10 c4
-7 3 -8 -4 -4 -7 4 -12 3 -12 -2 0 -6 -7 -12 -15 -16 -12 -4 -13 -2 -2 14 14
23 23 25 33 8z m540 -20 c4 -7 4 -10 -1 -6 -4 4 -14 0 -22 -10 -13 -15 -13
-15 -3 6 12 25 16 27 26 10z m403 -15 c8 -16 8 -24 -1 -29 -7 -4 -8 -3 -4 4 4
7 2 12 -3 12 -6 0 -11 10 -11 22 0 24 2 23 19 -9z m-2039 -17 c0 -3 -4 -8 -10
-11 -5 -3 -10 -1 -10 4 0 6 5 11 10 11 6 0 10 -2 10 -4z m1939 -30 c-3 -3 -11
5 -18 17 -13 21 -12 21 5 5 10 -10 16 -20 13 -22z m222 -63 c5 -7 5 -14 0 -18
-5 -3 -19 10 -30 28 -11 18 -29 42 -41 52 -11 10 -20 23 -20 29 0 9 59 -50 91
-91z m-1011 63 c0 -2 -8 -10 -17 -17 -16 -13 -17 -12 -4 4 13 16 21 21 21 13z
m968 -61 c5 -11 17 -37 26 -58 9 -21 20 -36 24 -33 10 6 46 -47 68 -99 16 -40
16 -40 -3 -22 -11 10 -28 35 -38 57 -10 22 -21 37 -25 35 -10 -6 -72 86 -93
138 l-16 37 24 -17 c13 -10 28 -27 33 -38z m-182 23 c8 -23 6 -59 -3 -68 -9
-9 -23 26 -23 58 0 37 15 43 26 10z m124 -33 c0 -5 -9 1 -20 15 -11 14 -20 30
-20 35 0 6 9 -1 20 -15 11 -14 20 -29 20 -35z m-800 25 c-6 -11 -12 -20 -14
-20 -2 0 -2 9 1 20 3 11 9 20 15 20 5 0 4 -9 -2 -20z m-150 -31 c-7 -11 -14
-18 -17 -15 -3 3 0 12 7 21 18 21 23 19 10 -6z m1301 4 c13 -16 12 -17 -3 -4
-10 7 -18 15 -18 17 0 8 8 3 21 -13z m-1147 -53 c-26 -52 -40 -66 -28 -28 6
20 44 78 50 78 2 0 -8 -22 -22 -50z m845 -25 c35 -70 46 -110 35 -126 -10 -16
-53 66 -58 111 -3 21 -10 48 -16 60 -6 11 -7 20 -2 20 5 0 24 -29 41 -65z m61
30 c14 -19 14 -19 -2 -6 -10 7 -18 18 -18 24 0 6 1 8 3 6 1 -2 9 -13 17 -24z
m-1169 -28 c-10 -9 -11 -8 -5 6 3 10 9 15 12 12 3 -3 0 -11 -7 -18z m120 -53
c-17 -33 -30 -51 -31 -40 0 18 51 108 58 101 2 -1 -10 -29 -27 -61z m954 -6
c10 -24 25 -51 33 -60 8 -10 11 -18 6 -18 -18 0 -31 16 -38 44 -4 16 -16 41
-27 54 -22 28 -26 50 -6 33 8 -6 22 -30 32 -53z m355 21 c15 -28 5 -23 -15 7
-9 15 -12 23 -6 20 6 -4 16 -16 21 -27z m-236 -54 c9 -19 21 -37 27 -41 14 -8
49 -83 49 -104 0 -8 -10 -1 -21 17 -12 20 -26 30 -35 26 -8 -3 -14 0 -14 7 0
6 5 8 10 5 14 -9 12 7 -4 30 -21 30 -46 95 -37 95 5 0 16 -16 25 -35z m-1748
-17 c-4 -27 -28 -58 -38 -52 -7 5 -4 12 8 21 10 8 20 18 20 23 2 16 4 20 8 20
2 0 3 -6 2 -12z m1700 -57 c1 -6 0 -7 -3 -1 -2 5 -9 8 -13 5 -5 -3 -11 -1 -14
4 -4 5 2 8 11 7 9 -2 18 -8 19 -15z m-1694 -46 c-18 -25 -32 -50 -32 -55 0 -5
-9 -14 -20 -20 -11 -6 -18 -15 -15 -21 4 -5 -1 -12 -9 -15 -9 -3 -16 -11 -16
-18 0 -6 -14 -27 -31 -46 l-30 -35 27 50 c15 28 39 64 53 80 14 17 41 54 60
83 18 29 36 50 39 47 3 -3 -9 -26 -26 -50z m-72 35 c0 -5 -5 -10 -11 -10 -5 0
-7 5 -4 10 3 6 8 10 11 10 2 0 4 -4 4 -10z m1777 -17 c-4 -3 -2 -12 5 -20 15
-19 19 -63 6 -63 -6 0 -9 3 -6 6 4 3 0 21 -8 39 -17 42 -17 45 -2 45 6 0 8 -3
5 -7z m-1809 -21 c9 7 6 -1 -7 -19 -12 -18 -26 -33 -31 -33 -5 0 -25 -27 -45
-60 -40 -66 -57 -81 -25 -22 54 99 84 144 88 132 3 -7 10 -6 20 2z m623 -45
c-10 -9 -11 -8 -5 6 3 10 9 15 12 12 3 -3 0 -11 -7 -18z m-738 -212 c-3 -9 -8
-14 -10 -11 -3 3 -2 9 2 15 9 16 15 13 8 -4z"/>
<path d="M1980 4065 c0 0 9 -8 20 -18 19 -16 20 -16 20 1 0 11 -8 18 -20 18
-11 0 -20 -1 -20 -1z"/>
<path d="M3410 3460 c0 -5 1 -11 2 -12 1 -2 -4 -14 -11 -27 -7 -13 -8 -21 -3
-17 14 9 33 66 21 66 -5 0 -9 -4 -9 -10z"/>
<path d="M3806 3354 c-5 -14 -4 -15 9 -4 17 14 19 20 6 20 -5 0 -12 -7 -15
-16z"/>
<path d="M3416 3285 c-3 -9 -6 -22 -5 -28 0 -7 5 -1 10 12 5 13 8 26 5 28 -2
2 -6 -3 -10 -12z"/>
<path d="M2727 2553 c-4 -3 -7 -11 -7 -17 0 -6 5 -5 12 2 6 6 9 14 7 17 -3 3
-9 2 -12 -2z"/>
<path d="M3025 2212 c-13 -9 -18 -35 -5 -27 5 3 18 2 28 -4 21 -11 44 -1 34
15 -10 15 -45 25 -57 16z"/>
<path d="M2000 2198 c0 -4 7 -8 16 -8 9 0 12 -5 8 -12 -4 -6 -3 -8 4 -4 6 3
13 2 17 -4 4 -6 11 -8 16 -4 5 3 7 10 3 15 -3 5 -10 7 -15 4 -5 -4 -12 0 -15
8 -5 15 -34 19 -34 5z"/>
<path d="M2684 2172 c2 -9 7 -17 13 -19 14 -5 12 25 -3 31 -7 3 -11 -2 -10
-12z"/>
<path d="M2466 2101 c-3 -4 4 -7 14 -6 27 2 33 10 10 12 -11 1 -22 -2 -24 -6z"/>
<path d="M2680 2086 c0 -8 4 -17 9 -20 5 -4 7 3 4 14 -6 23 -13 26 -13 6z"/>
<path d="M2706 2077 c3 -10 9 -15 12 -12 3 3 0 11 -7 18 -10 9 -11 8 -5 -6z"/>
<path d="M2746 2062 c-3 -5 1 -9 9 -9 8 0 12 4 9 9 -3 4 -7 8 -9 8 -2 0 -6 -4
-9 -8z"/>
<path d="M1138 1380 c-2 -7 -18 -18 -36 -24 l-32 -11 50 -64 c67 -87 172 -194
179 -184 3 5 19 16 34 26 15 10 25 23 21 29 -4 6 -3 8 3 5 10 -7 46 48 48 74
1 13 -8 17 -39 17 -22 1 -48 -4 -59 -10 -15 -8 -18 -7 -12 2 6 9 0 11 -23 8
-17 -2 -30 -1 -29 3 2 7 -39 67 -79 117 -15 18 -22 22 -26 12z m83 -173 c-10
-9 -11 -8 -5 6 3 10 9 15 12 12 3 -3 0 -11 -7 -18z m157 0 c6 3 9 10 6 15 -4
7 -2 8 4 4 9 -5 8 -12 0 -26 -12 -19 -13 -19 -35 2 -27 25 -31 14 -5 -16 17
-21 17 -21 -5 -3 -21 18 -22 18 -37 -10 -15 -28 -15 -28 -13 -3 2 35 37 63 57
46 8 -8 21 -11 28 -9z"/>
<path d="M2162 1344 c10 -10 20 -15 24 -12 3 4 -5 12 -18 18 -22 12 -22 12 -6
-6z"/>
<path d="M1950 1239 c0 -5 5 -7 10 -4 6 3 10 8 10 11 0 2 -4 4 -10 4 -5 0 -10
-5 -10 -11z"/>
<path d="M1967 1214 c-9 -19 -14 -40 -11 -46 4 -6 1 -14 -5 -18 -9 -5 -7 -11
5 -21 16 -12 17 -12 11 3 -3 10 -2 20 4 24 6 3 8 12 5 20 -3 8 1 14 9 14 8 0
15 7 15 15 0 9 7 18 15 21 19 8 10 24 -13 24 -9 0 -25 -16 -35 -36z"/>
<path d="M1529 1223 c-13 -16 -12 -17 4 -4 16 13 21 21 13 21 -2 0 -10 -8 -17
-17z"/>
<path d="M1555 1174 l-17 -27 28 7 c38 10 41 14 22 32 -13 14 -17 12 -33 -12z"/>
<path d="M1414 1168 c-4 -5 -3 -12 0 -15 3 -4 6 -1 6 6 0 7 5 9 10 6 6 -4 7
-12 4 -18 -4 -7 -3 -8 1 -4 15 13 14 34 -2 34 -7 0 -16 -4 -19 -9z"/>
<path d="M1516 1142 c-3 -3 0 -12 7 -20 6 -9 7 -13 2 -10 -17 11 -38 -8 -41
-36 -2 -18 1 -24 9 -20 7 4 8 3 4 -2 -5 -5 -12 -9 -15 -9 -4 0 -14 -4 -22 -10
-13 -8 -13 -7 -1 8 12 15 12 17 -4 11 -15 -6 -17 -3 -13 14 4 15 2 19 -8 15
-10 -4 -11 -10 -3 -25 8 -15 8 -23 -2 -32 -9 -8 -10 -8 -5 2 4 6 2 12 -5 12
-7 0 -9 -8 -6 -21 4 -16 3 -18 -9 -8 -22 18 -16 -6 7 -27 21 -19 21 -18 49 13
16 17 31 30 34 27 3 -2 4 -1 1 2 -2 4 4 19 15 34 11 15 16 30 13 34 -4 4 0 4
10 0 14 -5 16 -2 10 12 -5 13 -3 16 10 11 11 -4 14 -2 11 8 -6 14 -39 26 -48
17z"/>
<path d="M1363 1127 c-3 -6 -1 -7 5 -3 6 3 13 2 17 -4 6 -10 -9 -15 -30 -10
-5 1 -7 -2 -2 -6 4 -4 -1 -16 -10 -26 -12 -13 -13 -22 -6 -29 8 -8 16 -3 27
20 9 17 21 31 27 31 6 0 9 7 5 15 -3 9 0 15 10 15 8 0 12 -4 9 -10 -3 -5 -1
-10 5 -10 7 0 10 6 8 13 -6 15 -56 18 -65 4z"/>
<path d="M1455 1120 c-10 -11 -14 -20 -9 -20 5 0 17 9 27 20 9 11 13 20 8 20
-4 0 -16 -9 -26 -20z"/>
<path d="M2820 1196 c0 -2 7 -6 15 -10 8 -3 15 -1 15 4 0 6 -7 10 -15 10 -8 0
-15 -2 -15 -4z"/>
<path d="M2900 1162 c0 -12 19 -26 26 -19 2 2 -2 10 -11 17 -9 8 -15 8 -15 2z"/>
<path d="M2886 867 c3 -10 9 -15 12 -12 3 3 0 11 -7 18 -10 9 -11 8 -5 -6z"/>
</g>
</svg>
